<svg width="18" height="18" viewBox="0 0 18 18" fill="none" xmlns="http://www.w3.org/2000/svg">
<path d="M6 2.45624H3.75C3.35218 2.45624 2.97064 2.61427 2.68934 2.89558C2.40804 3.17688 2.25 3.55841 2.25 3.95624V6.20624M15.75 6.20624V3.95624C15.75 3.55841 15.592 3.17688 15.3107 2.89558C15.0294 2.61427 14.6478 2.45624 14.25 2.45624H12M12 15.9562H14.25C14.6478 15.9562 15.0294 15.7982 15.3107 15.5169C15.592 15.2356 15.75 14.8541 15.75 14.4562V12.2062M2.25 12.2062V14.4562C2.25 14.8541 2.40804 15.2356 2.68934 15.5169C2.97064 15.7982 3.35218 15.9562 3.75 15.9562H6" stroke="#201E2A" stroke-width="2" stroke-linecap="round" stroke-linejoin="round"/>
<rect x="4.84351" y="4.70624" width="8.25" height="9" rx="2" fill="#201E2A"/>
<line x1="2.34351" y1="9.45624" x2="15.5935" y2="9.45624" stroke="#201E2A" stroke-linecap="round"/>
<path d="M4.84351 9.33124L13.0935 9.33124V8.33124L4.84351 8.33124V9.33124Z" fill="white"/>
</svg>
